<svg xmlns="http://www.w3.org/2000/svg" xmlns:xlink="http://www.w3.org/1999/xlink" width="300" zoomAndPan="magnify" viewBox="0 0 224.87999 225" height="300" preserveAspectRatio="xMidYMid meet" version="1.0"><defs><clipPath id="85ffd23eb1"><path d="M 0 0.0585938 L 224.761719 0.0585938 L 224.761719 224.9375 L 0 224.9375 Z M 0 0.0585938 " clip-rule="nonzero"/></clipPath><clipPath id="e05e646e5c"><path d="M 3.210938 0.0585938 L 221.667969 0.0585938 L 221.667969 224.9375 L 3.210938 224.9375 Z M 3.210938 0.0585938 " clip-rule="nonzero"/></clipPath><clipPath id="cd37f257b5"><path d="M 21.953125 0.0585938 L 202.925781 0.0585938 C 207.898438 0.0585938 212.664062 2.035156 216.179688 5.550781 C 219.691406 9.0625 221.667969 13.828125 221.667969 18.800781 L 221.667969 206.199219 C 221.667969 211.171875 219.691406 215.9375 216.179688 219.453125 C 212.664062 222.964844 207.898438 224.941406 202.925781 224.941406 L 21.953125 224.941406 C 16.980469 224.941406 12.214844 222.964844 8.703125 219.453125 C 5.1875 215.9375 3.210938 211.171875 3.210938 206.199219 L 3.210938 18.800781 C 3.210938 13.828125 5.1875 9.0625 8.703125 5.550781 C 12.214844 2.035156 16.980469 0.0585938 21.953125 0.0585938 Z M 21.953125 0.0585938 " clip-rule="nonzero"/></clipPath><clipPath id="abe5cd32a7"><path d="M 3.210938 0.0625 L 221.347656 0.0625 L 221.347656 224.9375 L 3.210938 224.9375 Z M 3.210938 0.0625 " clip-rule="nonzero"/></clipPath><clipPath id="2ef9a30e64"><path d="M 21.953125 0.0625 L 202.921875 0.0625 C 207.894531 0.0625 212.660156 2.035156 216.171875 5.550781 C 219.6875 9.066406 221.664062 13.832031 221.664062 18.800781 L 221.664062 206.199219 C 221.664062 211.167969 219.6875 215.933594 216.171875 219.449219 C 212.660156 222.964844 207.894531 224.9375 202.921875 224.9375 L 21.953125 224.9375 C 16.980469 224.9375 12.214844 222.964844 8.703125 219.449219 C 5.1875 215.933594 3.210938 211.167969 3.210938 206.199219 L 3.210938 18.800781 C 3.210938 13.832031 5.1875 9.066406 8.703125 5.550781 C 12.214844 2.035156 16.980469 0.0625 21.953125 0.0625 Z M 21.953125 0.0625 " clip-rule="nonzero"/></clipPath><clipPath id="bf4f09b6e8"><path d="M 9.992188 21 L 215 21 L 215 200.4375 L 9.992188 200.4375 Z M 9.992188 21 " clip-rule="nonzero"/></clipPath><clipPath id="270c71674d"><path d="M 18.113281 49.777344 C 1.503906 77.148438 13.207031 103.789062 27.914062 117.925781 L 113.914062 200.4375 L 198.097656 118.222656 C 211.777344 103.011719 217.023438 86.878906 214.109375 68.914062 C 210.085938 44.0625 189.609375 24.78125 164.308594 22.027344 C 148.792969 20.359375 133.804688 24.75 122.109375 34.46875 C 118.957031 37.085938 116.144531 40.007812 113.691406 43.1875 C 110.78125 39.570312 107.371094 36.257812 103.511719 33.324219 C 90.058594 23.101562 72.933594 19.042969 56.488281 22.199219 C 40.910156 25.207031 26.925781 35.257812 18.113281 49.777344 Z M 18.113281 49.777344 " clip-rule="nonzero"/></clipPath><clipPath id="504de8b685"><path d="M 9.992188 21.15625 L 214.632812 21.15625 L 214.632812 200.304688 L 9.992188 200.304688 Z M 9.992188 21.15625 " clip-rule="nonzero"/></clipPath><clipPath id="b57a791dc3"><path d="M 18.113281 49.78125 C 1.503906 77.148438 13.207031 103.789062 27.914062 117.925781 L 113.910156 200.433594 L 198.089844 118.222656 C 211.769531 103.011719 217.011719 86.878906 214.101562 68.914062 C 210.078125 44.066406 189.601562 24.785156 164.304688 22.03125 C 148.789062 20.363281 133.800781 24.753906 122.101562 34.472656 C 118.953125 37.089844 116.140625 40.011719 113.6875 43.191406 C 110.777344 39.570312 107.367188 36.261719 103.507812 33.328125 C 90.054688 23.105469 72.933594 19.046875 56.484375 22.203125 C 40.90625 25.210938 26.925781 35.261719 18.113281 49.78125 Z M 18.113281 49.78125 " clip-rule="nonzero"/></clipPath><clipPath id="052d92c5f6"><path d="M 52.929688 51.285156 L 172 51.285156 L 172 170.46875 L 52.929688 170.46875 Z M 52.929688 51.285156 " clip-rule="nonzero"/></clipPath><clipPath id="fcdf5cfe5c"><path d="M 61 51.285156 L 164 51.285156 L 164 168.972656 L 61 168.972656 Z M 61 51.285156 " clip-rule="nonzero"/></clipPath></defs><g clip-path="url(#85ffd23eb1)"><path fill="#ffffff" d="M 0 0.0585938 L 224.878906 0.0585938 L 224.878906 224.941406 L 0 224.941406 Z M 0 0.0585938 " fill-opacity="1" fill-rule="nonzero"/><path fill="#ffffff" d="M 0 0.0585938 L 224.878906 0.0585938 L 224.878906 224.941406 L 0 224.941406 Z M 0 0.0585938 " fill-opacity="1" fill-rule="nonzero"/></g><g clip-path="url(#e05e646e5c)"><g clip-path="url(#cd37f257b5)"><path fill="#ffffff" d="M 3.210938 0.0585938 L 221.667969 0.0585938 L 221.667969 225.339844 L 3.210938 225.339844 Z M 3.210938 0.0585938 " fill-opacity="1" fill-rule="nonzero"/></g></g><g clip-path="url(#abe5cd32a7)"><g clip-path="url(#2ef9a30e64)"><path stroke-linecap="butt" transform="matrix(0.7496, 0, 0, 0.7496, 3.212571, 0.0626002)" fill="none" stroke-linejoin="miter" d="M 25.000741 -0.000133654 L 266.421186 -0.000133654 C 273.054933 -0.000133654 279.412491 2.631478 284.097282 7.32148 C 288.787283 12.011482 291.424107 18.36904 291.424107 24.997576 L 291.424107 274.995513 C 291.424107 281.624048 288.787283 287.981606 284.097282 292.671608 C 279.412491 297.36161 273.054933 299.993222 266.421186 299.993222 L 25.000741 299.993222 C 18.366994 299.993222 12.009436 297.36161 7.324646 292.671608 C 2.634644 287.981606 -0.00217919 281.624048 -0.00217919 274.995513 L -0.00217919 24.997576 C -0.00217919 18.36904 2.634644 12.011482 7.324646 7.32148 C 12.009436 2.631478 18.366994 -0.000133654 25.000741 -0.000133654 Z M 25.000741 -0.000133654 " stroke="#000000" stroke-width="6" stroke-opacity="1" stroke-miterlimit="4"/></g></g><g clip-path="url(#bf4f09b6e8)"><g clip-path="url(#270c71674d)"><path fill="#1b60bb" d="M 9.992188 21.152344 L 215.1875 21.152344 L 215.1875 200.4375 L 9.992188 200.4375 Z M 9.992188 21.152344 " fill-opacity="1" fill-rule="nonzero"/></g></g><g clip-path="url(#504de8b685)"><g clip-path="url(#b57a791dc3)"><path stroke-linecap="butt" transform="matrix(0.7496, 0, 0, 0.7496, 9.992205, 21.155867)" fill="none" stroke-linejoin="miter" d="M 10.833881 38.187547 C -11.323771 74.696605 4.288723 110.236396 23.908564 129.095414 L 138.631218 239.164544 L 250.930704 129.491458 C 269.180021 109.199384 276.173335 87.677487 272.291056 63.711579 C 266.923609 30.563688 239.606955 4.841635 205.859787 1.1678 C 185.161246 -1.057345 165.166205 4.799946 149.558922 17.765195 C 145.358764 21.256641 141.606763 25.154553 138.334184 29.396399 C 134.451905 24.565697 129.902603 20.151885 124.754023 16.238339 C 106.80695 2.600856 83.966642 -2.813491 62.022645 1.397089 C 41.240726 5.409646 22.590152 18.81784 10.833881 38.187547 Z M 10.833881 38.187547 " stroke="#000000" stroke-width="6" stroke-opacity="1" stroke-miterlimit="4"/></g></g><g clip-path="url(#052d92c5f6)"><path fill="#ffffff" d="M 130.902344 94.375 C 129.769531 94.375 128.851562 93.453125 128.851562 92.320312 C 128.851562 92.320312 128.851562 57.488281 128.851562 57.488281 C 128.851562 54.089844 126.09375 51.332031 122.695312 51.332031 L 102.175781 51.332031 C 98.777344 51.332031 96.019531 54.089844 96.019531 57.488281 L 96.019531 92.320312 C 96.019531 93.453125 95.101562 94.375 93.96875 94.375 C 93.96875 94.375 59.136719 94.375 59.136719 94.375 C 55.734375 94.375 52.980469 97.128906 52.980469 100.53125 L 52.980469 121.046875 C 52.980469 124.449219 55.734375 127.203125 59.136719 127.203125 L 93.96875 127.203125 C 95.101562 127.203125 96.019531 128.125 96.019531 129.257812 C 96.019531 129.257812 96.019531 164.089844 96.019531 164.089844 C 96.019531 167.488281 98.777344 170.246094 102.175781 170.246094 L 122.695312 170.246094 C 126.09375 170.246094 128.851562 167.488281 128.851562 164.089844 L 128.851562 129.257812 C 128.851562 128.125 129.769531 127.203125 130.902344 127.203125 C 130.902344 127.203125 165.734375 127.203125 165.734375 127.203125 C 169.136719 127.203125 171.890625 124.449219 171.890625 121.046875 L 171.890625 100.53125 C 171.890625 97.128906 169.136719 94.375 165.734375 94.375 Z M 130.902344 94.375 " fill-opacity="1" fill-rule="evenodd"/></g><g clip-path="url(#fcdf5cfe5c)"><path fill="#000000" d="M 154.609375 103.261719 C 154.242188 104.203125 153.960938 105.191406 153.78125 106.1875 L 153.636719 106.972656 C 153.3125 108.761719 152.65625 110.445312 151.683594 111.984375 L 151.582031 112.140625 C 150.832031 113.324219 150.246094 114.601562 149.828125 115.9375 L 145.035156 131.355469 C 144.234375 133.925781 143.703125 136.492188 143.460938 138.984375 C 142.78125 146.015625 139.667969 152.714844 134.703125 157.839844 C 129.664062 163.042969 122.953125 166.359375 115.796875 167.1875 C 107.5 168.144531 99.292969 165.792969 92.699219 160.566406 C 86.101562 155.335938 81.941406 147.886719 80.984375 139.585938 L 79.148438 123.714844 C 79.003906 122.453125 78.675781 121.214844 78.183594 120.042969 L 64.28125 86.992188 C 63.054688 84.105469 64.40625 80.753906 67.296875 79.527344 C 68.003906 79.226562 68.753906 79.078125 69.503906 79.078125 C 70.226562 79.078125 70.953125 79.21875 71.648438 79.496094 C 73.0625 80.066406 74.167969 81.148438 74.761719 82.546875 L 85.496094 107.453125 C 85.941406 108.488281 86.835938 109.207031 87.878906 109.445312 L 90.84375 121.839844 C 85.738281 123.507812 81.910156 124.398438 81.8125 124.421875 C 81.304688 124.535156 80.988281 125.039062 81.105469 125.546875 C 81.203125 125.980469 81.589844 126.277344 82.019531 126.277344 C 82.089844 126.277344 82.160156 126.269531 82.230469 126.253906 C 82.28125 126.242188 86.136719 125.351562 91.28125 123.683594 L 91.84375 126.03125 C 92.589844 129.144531 95.171875 131.347656 98.167969 131.769531 C 98.265625 131.804688 98.363281 131.839844 98.464844 131.867188 C 95.46875 137.523438 93.996094 142.917969 93.007812 146.558594 C 92.917969 146.886719 92.832031 147.199219 92.75 147.496094 C 92.609375 147.996094 92.902344 148.515625 93.40625 148.652344 C 93.488281 148.675781 93.570312 148.6875 93.65625 148.6875 C 94.066406 148.6875 94.445312 148.414062 94.558594 147.996094 C 94.644531 147.695312 94.730469 147.382812 94.820312 147.050781 C 95.828125 143.347656 97.351562 137.757812 100.554688 131.988281 C 100.71875 131.960938 100.890625 131.933594 101.0625 131.890625 C 102.242188 131.617188 103.160156 131.078125 103.800781 130.289062 C 105.5625 128.9375 106.667969 126.855469 106.769531 124.609375 C 107.726562 125.414062 108.863281 125.9375 110.121094 126.15625 C 110.691406 126.414062 111.347656 126.5625 112.105469 126.5625 C 112.347656 126.5625 112.597656 126.550781 112.855469 126.519531 C 112.886719 126.515625 112.914062 126.511719 112.941406 126.507812 C 110.226562 134.730469 110.484375 142.699219 111.199219 148 C 112 153.921875 113.488281 157.796875 113.550781 157.960938 C 113.695312 158.332031 114.050781 158.558594 114.425781 158.558594 C 114.539062 158.558594 114.65625 158.539062 114.765625 158.496094 C 115.25 158.308594 115.492188 157.765625 115.304688 157.28125 C 115.289062 157.242188 113.820312 153.410156 113.054688 147.695312 C 112.351562 142.449219 112.113281 134.492188 114.972656 126.375 C 115.042969 126.175781 115.039062 125.972656 114.980469 125.785156 C 115.347656 125.542969 115.667969 125.246094 115.941406 124.894531 C 117.988281 123.453125 119.277344 121.027344 119.152344 118.34375 C 119.152344 118.3125 119.148438 118.277344 119.144531 118.246094 L 118.578125 114.640625 C 118.851562 114.503906 119.128906 114.367188 119.40625 114.234375 C 119.875 114.011719 120.074219 113.453125 119.851562 112.984375 C 119.628906 112.515625 119.066406 112.316406 118.597656 112.539062 C 118.488281 112.589844 118.382812 112.644531 118.277344 112.695312 L 116.953125 104.191406 C 117.976562 103.578125 118.636719 102.460938 118.625 101.207031 L 118.316406 58.910156 C 118.300781 57.394531 118.882812 55.960938 119.953125 54.875 C 121.019531 53.785156 122.441406 53.179688 123.957031 53.164062 C 123.972656 53.164062 123.988281 53.164062 124.007812 53.164062 C 127.121094 53.164062 129.667969 55.683594 129.699219 58.796875 L 129.648438 99.804688 C 129.644531 101.832031 129.828125 103.871094 130.191406 105.867188 L 131.609375 113.640625 C 131.628906 113.753906 131.660156 113.867188 131.695312 113.976562 C 128.175781 114.925781 124.980469 116.777344 122.367188 119.402344 C 119.203125 122.578125 117.183594 126.605469 116.527344 131.054688 C 116.453125 131.566406 116.804688 132.042969 117.320312 132.121094 C 117.367188 132.125 117.414062 132.128906 117.457031 132.128906 C 117.914062 132.128906 118.316406 131.792969 118.386719 131.328125 C 118.984375 127.28125 120.820312 123.613281 123.699219 120.726562 C 126.460938 117.953125 129.941406 116.128906 133.765625 115.4375 C 134.65625 115.441406 135.457031 114.914062 135.796875 114.070312 C 135.800781 114.058594 135.804688 114.050781 135.808594 114.039062 C 136.8125 111.285156 139.414062 104.378906 140.691406 101.804688 C 141.429688 101.449219 142.25 101.246094 143.066406 101.210938 C 143.585938 101.1875 143.984375 100.75 143.964844 100.230469 C 143.941406 99.710938 143.5 99.3125 142.984375 99.332031 C 142.558594 99.351562 142.128906 99.40625 141.710938 99.496094 C 143.066406 96.375 146.984375 89.710938 152.84375 86.425781 C 154.890625 85.277344 156.96875 84.683594 159.046875 84.644531 C 158.738281 84.90625 158.492188 85.230469 158.339844 85.636719 L 157.988281 86.398438 C 156.921875 88.710938 156.277344 90.109375 155.355469 92.835938 C 154.554688 94.628906 155.824219 97.460938 156.417969 98.613281 Z M 98.363281 129.878906 C 96.707031 128.824219 96.035156 125.652344 95.59375 123.550781 C 95.5625 123.414062 95.617188 123.328125 95.652344 123.289062 C 95.695312 123.238281 95.75 123.210938 95.816406 123.210938 C 95.820312 123.210938 95.824219 123.210938 95.832031 123.210938 C 97.738281 123.324219 100.21875 122.777344 101.863281 121.882812 C 101.921875 121.855469 101.980469 121.851562 102.042969 121.878906 C 102.082031 121.894531 102.175781 121.949219 102.210938 122.082031 L 102.21875 122.109375 C 102.800781 124.269531 103.597656 127.230469 102.601562 128.890625 C 102.222656 129.527344 101.585938 129.9375 100.660156 130.152344 C 99.738281 130.367188 98.988281 130.277344 98.363281 129.878906 Z M 112.652344 124.746094 C 111.097656 124.925781 110.070312 124.355469 109.328125 122.90625 C 108.617188 121.515625 108.324219 119.605469 108.082031 117.773438 C 108.0625 117.632812 108.125 117.550781 108.160156 117.515625 C 108.203125 117.472656 108.253906 117.449219 108.3125 117.449219 C 108.324219 117.449219 108.335938 117.449219 108.347656 117.453125 C 110.242188 117.710938 112.757812 117.363281 114.464844 116.597656 C 114.523438 116.574219 114.585938 116.574219 114.644531 116.605469 C 114.683594 116.625 114.769531 116.683594 114.796875 116.824219 C 115.117188 118.539062 115.785156 122.101562 114.566406 123.753906 C 114.148438 124.320312 113.523438 124.644531 112.652344 124.746094 Z M 105.976562 93.160156 L 109.136719 92.667969 C 111.351562 92.328125 113.4375 93.851562 113.785156 96.066406 L 117.277344 118.480469 C 117.300781 119.117188 117.21875 119.734375 117.046875 120.3125 C 116.996094 118.878906 116.738281 117.484375 116.550781 116.496094 C 116.429688 115.855469 116.039062 115.324219 115.472656 115.027344 C 114.929688 114.738281 114.296875 114.71875 113.738281 114.96875 C 112.324219 115.597656 110.160156 115.898438 108.589844 115.683594 C 107.964844 115.597656 107.351562 115.804688 106.902344 116.25 C 106.441406 116.707031 106.226562 117.347656 106.3125 118.003906 C 106.472656 119.222656 106.6875 120.84375 107.1875 122.347656 C 106.503906 121.453125 106.058594 120.292969 105.898438 118.910156 C 105.898438 118.894531 105.894531 118.882812 105.894531 118.871094 L 102.578125 97.816406 C 102.410156 96.742188 102.667969 95.664062 103.3125 94.78125 C 103.953125 93.902344 104.898438 93.328125 105.976562 93.160156 Z M 91.910156 98.851562 L 95.050781 98.449219 C 95.226562 98.425781 95.402344 98.414062 95.578125 98.414062 C 97.429688 98.414062 99.078125 99.675781 99.527344 101.523438 L 104.746094 122.945312 C 104.949219 123.800781 104.949219 124.660156 104.773438 125.464844 C 104.609375 124.128906 104.25 122.789062 103.941406 121.644531 L 103.933594 121.617188 C 103.765625 120.992188 103.332031 120.488281 102.746094 120.238281 C 102.183594 119.996094 101.550781 120.023438 101.011719 120.316406 C 99.652344 121.054688 97.519531 121.523438 95.933594 121.429688 C 95.304688 121.390625 94.710938 121.648438 94.296875 122.125 C 93.871094 122.617188 93.707031 123.273438 93.84375 123.921875 C 94.113281 125.195312 94.433594 126.703125 94.976562 128.074219 C 94.359375 127.390625 93.902344 126.550781 93.671875 125.59375 L 88.472656 103.835938 C 88.203125 102.714844 88.425781 101.527344 89.078125 100.578125 C 89.734375 99.628906 90.765625 99 91.910156 98.851562 Z M 157.078125 93.585938 C 157.09375 93.550781 157.105469 93.519531 157.117188 93.484375 C 158.019531 90.820312 158.613281 89.53125 159.695312 87.1875 L 160.0625 86.382812 C 160.074219 86.359375 160.085938 86.332031 160.097656 86.300781 C 160.234375 85.902344 161.015625 85.640625 161.828125 85.519531 C 161.757812 85.863281 161.691406 86.199219 161.621094 86.53125 C 160.835938 90.425781 160.144531 93.84375 157.683594 96.878906 C 157.164062 95.652344 156.769531 94.226562 157.078125 93.585938 Z M 163.851562 83.847656 C 163.738281 83.613281 163.527344 83.4375 163.277344 83.363281 C 159.464844 82.21875 155.648438 82.699219 151.925781 84.785156 C 148.03125 86.96875 145.058594 90.480469 143.253906 93.039062 C 141.214844 95.929688 139.878906 98.699219 139.460938 100.140625 C 138.074219 102.398438 134.5 112.148438 134.050781 113.375 C 134.015625 113.457031 133.96875 113.503906 133.914062 113.53125 C 133.84375 113.523438 133.773438 113.527344 133.699219 113.539062 C 133.6875 113.539062 133.679688 113.542969 133.667969 113.546875 C 133.578125 113.519531 133.484375 113.457031 133.457031 113.304688 L 132.039062 105.527344 C 131.695312 103.648438 131.527344 101.722656 131.527344 99.808594 L 131.578125 58.789062 C 131.539062 54.636719 128.152344 51.285156 124.007812 51.285156 C 123.984375 51.285156 123.960938 51.285156 123.9375 51.285156 C 119.765625 51.324219 116.398438 54.75 116.433594 58.921875 L 116.746094 101.222656 C 116.75 101.464844 116.695312 101.699219 116.59375 101.90625 L 115.640625 95.777344 C 115.136719 92.539062 112.085938 90.3125 108.847656 90.8125 L 105.6875 91.300781 C 104.117188 91.546875 102.730469 92.386719 101.792969 93.675781 C 100.855469 94.960938 100.472656 96.535156 100.722656 98.109375 L 101.042969 100.144531 C 100.015625 97.734375 97.492188 96.238281 94.8125 96.582031 L 91.671875 96.988281 C 89.996094 97.203125 88.488281 98.125 87.53125 99.511719 C 86.574219 100.898438 86.25 102.636719 86.644531 104.273438 L 87.230469 106.722656 C 87.226562 106.71875 87.222656 106.714844 87.222656 106.707031 L 76.488281 81.808594 C 75.703125 79.953125 74.234375 78.511719 72.351562 77.753906 C 70.472656 76.996094 68.414062 77.011719 66.558594 77.796875 C 62.71875 79.429688 60.917969 83.886719 62.550781 87.726562 L 76.453125 120.769531 C 76.875 121.78125 77.15625 122.84375 77.28125 123.933594 L 79.117188 139.800781 C 80.132812 148.597656 84.542969 156.496094 91.53125 162.039062 C 97.496094 166.765625 104.707031 169.277344 112.164062 169.277344 C 113.441406 169.277344 114.726562 169.203125 116.015625 169.054688 C 123.597656 168.175781 130.714844 164.660156 136.050781 159.148438 C 141.3125 153.714844 144.609375 146.621094 145.332031 139.167969 C 145.5625 136.800781 146.066406 134.363281 146.828125 131.910156 L 151.621094 116.496094 C 151.988281 115.316406 152.511719 114.1875 153.171875 113.144531 L 153.269531 112.984375 C 154.371094 111.246094 155.117188 109.335938 155.484375 107.308594 L 155.628906 106.523438 C 155.789062 105.644531 156.035156 104.773438 156.359375 103.941406 L 158.257812 99.066406 C 161.738281 95.421875 162.539062 91.46875 163.464844 86.902344 C 163.609375 86.1875 163.757812 85.453125 163.921875 84.703125 C 163.941406 84.605469 163.945312 84.503906 163.9375 84.40625 C 163.964844 84.21875 163.9375 84.023438 163.851562 83.847656 " fill-opacity="1" fill-rule="nonzero"/></g><path fill="#000000" d="M 127.921875 103.097656 C 125.996094 101.875 123.597656 101.355469 121.339844 101.679688 C 120.828125 101.75 120.46875 102.226562 120.542969 102.742188 C 120.617188 103.253906 121.09375 103.613281 121.605469 103.539062 C 123.425781 103.277344 125.363281 103.695312 126.914062 104.683594 C 127.070312 104.78125 127.246094 104.828125 127.417969 104.828125 C 127.726562 104.828125 128.03125 104.675781 128.210938 104.394531 C 128.488281 103.957031 128.359375 103.375 127.921875 103.097656 " fill-opacity="1" fill-rule="nonzero"/><path fill="#000000" d="M 81.328125 116.007812 C 81.945312 114.273438 83.214844 112.753906 84.808594 111.839844 C 85.261719 111.582031 85.417969 111.007812 85.15625 110.558594 C 84.898438 110.105469 84.324219 109.953125 83.875 110.210938 C 81.894531 111.34375 80.324219 113.226562 79.558594 115.375 C 79.386719 115.867188 79.640625 116.402344 80.128906 116.578125 C 80.234375 116.613281 80.339844 116.632812 80.445312 116.632812 C 80.832031 116.632812 81.191406 116.390625 81.328125 116.007812 " fill-opacity="1" fill-rule="nonzero"/><path fill="#000000" d="M 75.898438 90.328125 C 75.621094 89.890625 75.039062 89.761719 74.601562 90.042969 L 69.984375 92.988281 C 69.550781 93.269531 69.421875 93.851562 69.699219 94.289062 C 69.878906 94.566406 70.183594 94.722656 70.492188 94.722656 C 70.664062 94.722656 70.839844 94.671875 70.996094 94.574219 L 75.613281 91.625 C 76.050781 91.347656 76.179688 90.765625 75.898438 90.328125 " fill-opacity="1" fill-rule="nonzero"/><path fill="#000000" d="M 81.496094 101.851562 C 81.253906 101.390625 80.683594 101.21875 80.226562 101.460938 C 78.355469 102.449219 76.53125 103.566406 74.796875 104.777344 C 74.371094 105.074219 74.265625 105.660156 74.566406 106.085938 C 74.746094 106.347656 75.039062 106.484375 75.335938 106.484375 C 75.523438 106.484375 75.710938 106.429688 75.871094 106.316406 C 77.542969 105.148438 79.304688 104.074219 81.105469 103.121094 C 81.5625 102.878906 81.738281 102.3125 81.496094 101.851562 " fill-opacity="1" fill-rule="nonzero"/><path fill="#000000" d="M 120.503906 88.75 C 122.757812 88.542969 125.027344 88.660156 127.246094 89.097656 C 127.304688 89.113281 127.367188 89.117188 127.425781 89.117188 C 127.867188 89.117188 128.257812 88.808594 128.347656 88.359375 C 128.449219 87.851562 128.117188 87.355469 127.609375 87.257812 C 125.214844 86.78125 122.765625 86.65625 120.332031 86.878906 C 119.816406 86.929688 119.4375 87.386719 119.484375 87.902344 C 119.53125 88.417969 119.988281 88.796875 120.503906 88.75 " fill-opacity="1" fill-rule="nonzero"/><path fill="#000000" d="M 120.433594 71.910156 C 122.859375 71.871094 125.308594 72.007812 127.710938 72.324219 C 127.753906 72.332031 127.792969 72.335938 127.835938 72.335938 C 128.300781 72.335938 128.703125 71.988281 128.765625 71.515625 C 128.832031 71 128.472656 70.53125 127.957031 70.460938 C 125.460938 70.136719 122.917969 69.992188 120.402344 70.035156 C 119.882812 70.042969 119.46875 70.46875 119.480469 70.988281 C 119.488281 71.507812 119.917969 71.917969 120.433594 71.910156 " fill-opacity="1" fill-rule="nonzero"/></svg>